<?xml version="1.0" encoding="UTF-8"?>
<svg xmlns="http://www.w3.org/2000/svg" width="270" height="156" viewBox="0 0 270 156" fill="none">
  <path fill-rule="evenodd" clip-rule="evenodd" d="M82.1821 31.7103C82.1339 33.1016 80.9666 34.1909 79.5745 34.1422C78.1832 34.0944 77.0939 32.9267 77.1422 31.5358C77.1908 30.1446 78.3577 29.0544 79.749 29.1027C81.1415 29.1509 82.2304 30.319 82.1821 31.7103Z" fill="#995C8C"></path>
  <path fill-rule="evenodd" clip-rule="evenodd" d="M75.73 31.5854C75.8759 32.9703 74.8714 34.2114 73.4864 34.3574C72.1023 34.5034 70.8612 33.498 70.7152 32.1138C70.5696 30.7289 71.5738 29.4878 72.9579 29.3418C74.3433 29.1958 75.584 30.2 75.73 31.5854Z" fill="#995C8C"></path>
  <path fill-rule="evenodd" clip-rule="evenodd" d="M69.3234 32.3591C69.6611 33.7101 68.839 35.0787 67.488 35.4159C66.1365 35.7536 64.7683 34.9315 64.4311 33.5809C64.0939 32.2291 64.916 30.8613 66.2666 30.5236C67.6171 30.1864 68.9862 31.0085 69.3234 32.3591Z" fill="#995C8C"></path>
  <path fill-rule="evenodd" clip-rule="evenodd" d="M63.0867 34.0173C63.6089 35.3088 62.9852 36.778 61.6941 37.3002C60.4027 37.8224 58.9334 37.1987 58.4112 35.9077C57.889 34.6163 58.5123 33.1474 59.8037 32.6252C61.0952 32.103 62.564 32.7263 63.0867 34.0173Z" fill="#995C8C"></path>
  <path fill-rule="evenodd" clip-rule="evenodd" d="M57.1445 36.5275C57.8408 37.7329 57.4281 39.2752 56.2222 39.9715C55.0163 40.6677 53.4749 40.2558 52.7778 39.05C52.0815 37.8441 52.4943 36.3018 53.7001 35.6047C54.906 34.9085 56.4483 35.3216 57.1445 36.5275Z" fill="#995C8C"></path>
  <path fill-rule="evenodd" clip-rule="evenodd" d="M51.6078 39.8395C52.4651 40.9368 52.2709 42.5214 51.1741 43.3787C50.0768 44.2369 48.4922 44.0419 47.6349 42.945C46.7767 41.8478 46.9713 40.2636 48.0686 39.4058C49.1654 38.5485 50.7505 38.7427 51.6078 39.8395Z" fill="#995C8C"></path>
  <path fill-rule="evenodd" clip-rule="evenodd" d="M46.5833 43.8909C47.5849 44.8577 47.6138 46.4545 46.6458 47.4565C45.6794 48.4581 44.0834 48.4858 43.0806 47.519C42.0789 46.5526 42.0508 44.9558 43.0176 43.9538C43.9853 42.9522 45.5812 42.9241 46.5833 43.8909Z" fill="#995C8C"></path>
  <path fill-rule="evenodd" clip-rule="evenodd" d="M42.1745 48.6022C43.3016 49.4201 43.5515 50.9967 42.7328 52.1233C41.9149 53.2499 40.3387 53.5007 39.2116 52.6824C38.085 51.8641 37.835 50.287 38.6534 49.1604C39.4708 48.0334 41.0479 47.7834 42.1745 48.6022Z" fill="#995C8C"></path>
  <path fill-rule="evenodd" clip-rule="evenodd" d="M38.4608 53.881C39.6902 54.5345 40.1579 56.0604 39.504 57.291C38.8505 58.5204 37.3242 58.9876 36.0948 58.3341C34.8646 57.6807 34.3982 56.1535 35.0508 54.9241C35.7043 53.6948 37.2315 53.2271 38.4608 53.881Z" fill="#995C8C"></path>
  <path fill-rule="evenodd" clip-rule="evenodd" d="M35.5226 59.6247C36.8312 60.1007 37.5065 61.5473 37.0304 62.856C36.5544 64.1646 35.1077 64.8399 33.7991 64.3639C32.4905 63.8874 31.8152 62.4412 32.2912 61.1325C32.7673 59.8235 34.2139 59.1486 35.5226 59.6247Z" fill="#995C8C"></path>
  <path fill-rule="evenodd" clip-rule="evenodd" d="M33.4091 65.7218C34.771 66.0112 35.641 67.3492 35.3524 68.712C35.0626 70.0739 33.7237 70.9438 32.3618 70.6544C30.9999 70.3658 30.13 69.0266 30.4186 67.6647C30.7084 66.3019 32.0472 65.4324 33.4091 65.7218Z" fill="#995C8C"></path>
  <path fill-rule="evenodd" clip-rule="evenodd" d="M32.1671 72.0535C33.5567 72.15 34.6045 73.3555 34.5076 74.7438C34.4103 76.1334 33.2061 77.1811 31.8165 77.0842C30.4277 76.9878 29.3804 75.7827 29.4769 74.394C29.5738 73.0044 30.778 71.9571 32.1671 72.0535Z" fill="#995C8C"></path>
  <path fill-rule="evenodd" clip-rule="evenodd" d="M31.8158 78.4969C33.2045 78.3996 34.4091 79.4465 34.5077 80.8356C34.605 82.2244 33.5577 83.4303 32.1689 83.5276C30.7797 83.6249 29.5743 82.5776 29.477 81.1888C29.3797 79.7996 30.4266 78.5942 31.8158 78.4969Z" fill="#995C8C"></path>
  <path fill-rule="evenodd" clip-rule="evenodd" d="M32.3642 84.9267C33.7257 84.6364 35.065 85.5059 35.3552 86.8674C35.645 88.2306 34.776 89.5694 33.4141 89.8588C32.0513 90.149 30.7125 89.2791 30.4231 87.9177C30.1328 86.5557 31.0023 85.2165 32.3642 84.9267Z" fill="#995C8C"></path>
  <path fill-rule="evenodd" clip-rule="evenodd" d="M33.8035 91.217C35.1125 90.7401 36.5587 91.415 37.0356 92.7228C37.5125 94.0319 36.8377 95.4789 35.5299 95.955C34.2208 96.4315 32.7737 95.7578 32.2977 94.4488C31.8208 93.1401 32.4948 91.6935 33.8035 91.217Z" fill="#995C8C"></path>
  <path fill-rule="evenodd" clip-rule="evenodd" d="M36.1031 97.2454C37.332 96.5914 38.8587 97.0574 39.5131 98.2876C40.1674 99.5166 39.701 101.043 38.4712 101.697C37.2418 102.352 35.7155 101.886 35.0612 100.656C34.4077 99.4264 34.8741 97.8997 36.1031 97.2454Z" fill="#995C8C"></path>
  <path fill-rule="evenodd" clip-rule="evenodd" d="M39.2223 102.895C40.3494 102.076 41.9256 102.326 42.7444 103.452C43.5631 104.579 43.3139 106.156 42.1878 106.975C41.0612 107.793 39.4849 107.544 38.6662 106.417C37.847 105.291 38.0957 103.714 39.2223 102.895Z" fill="#995C8C"></path>
  <path fill-rule="evenodd" clip-rule="evenodd" d="M43.0958 108.056C44.0966 107.089 45.6934 107.117 46.6611 108.118C47.6279 109.119 47.601 110.716 46.5998 111.682C45.5978 112.65 44.0018 112.623 43.0342 111.622C42.0666 110.62 42.0942 109.024 43.0958 108.056Z" fill="#995C8C"></path>
  <path fill-rule="evenodd" clip-rule="evenodd" d="M47.6497 112.628C48.507 111.531 50.0917 111.335 51.1889 112.193C52.2866 113.049 52.4816 114.634 51.6239 115.732C50.7674 116.829 49.1827 117.024 48.0851 116.167C46.9878 115.31 46.792 113.726 47.6497 112.628Z" fill="#995C8C"></path>
  <path fill-rule="evenodd" clip-rule="evenodd" d="M52.7969 116.522C53.4927 115.316 55.0342 114.902 56.2409 115.598C57.4472 116.294 57.8599 117.836 57.1645 119.042C56.4686 120.248 54.9268 120.662 53.7209 119.966C52.5142 119.269 52.1011 117.727 52.7969 116.522Z" fill="#995C8C"></path>
  <path fill-rule="evenodd" clip-rule="evenodd" d="M58.4341 119.661C58.9554 118.369 60.4247 117.745 61.7161 118.266C63.0072 118.787 63.6309 120.257 63.1095 121.549C62.5886 122.84 61.1189 123.464 59.8283 122.943C58.5368 122.422 57.9127 120.952 58.4341 119.661Z" fill="#995C8C"></path>
  <path fill-rule="evenodd" clip-rule="evenodd" d="M64.4543 121.985C64.7911 120.634 66.1593 119.811 67.5107 120.147C68.8617 120.484 69.6838 121.852 69.3474 123.203C69.0111 124.555 67.6429 125.378 66.2918 125.041C64.9408 124.704 64.1175 123.336 64.4543 121.985Z" fill="#995C8C"></path>
  <path fill-rule="evenodd" clip-rule="evenodd" d="M70.7385 123.449C70.8832 122.064 72.1235 121.059 73.5085 121.205C74.8939 121.349 75.8989 122.589 75.7537 123.975C75.6082 125.36 74.3679 126.364 72.9829 126.219C71.5984 126.074 70.5934 124.834 70.7385 123.449Z" fill="#995C8C"></path>
  <path fill-rule="evenodd" clip-rule="evenodd" d="M77.1637 124.024C77.115 122.632 78.2039 121.464 79.5947 121.416C80.9864 121.366 82.1541 122.454 82.2036 123.846C82.2523 125.238 81.1638 126.406 79.7717 126.455C78.38 126.504 77.2123 125.415 77.1637 124.024Z" fill="#995C8C"></path>
  <path fill-rule="evenodd" clip-rule="evenodd" d="M83.6112 123.699C83.3687 122.327 84.2848 121.019 85.6559 120.777C87.0271 120.535 88.3353 121.451 88.5777 122.822C88.8189 124.193 87.9041 125.501 86.533 125.743C85.1618 125.985 83.8536 125.07 83.6112 123.699Z" fill="#995C8C"></path>
  <path fill-rule="evenodd" clip-rule="evenodd" d="M89.9466 122.479C89.5158 121.154 90.2402 119.732 91.5648 119.301C92.8885 118.871 94.3113 119.595 94.7416 120.919C95.1724 122.244 94.448 123.667 93.1242 124.098C91.7997 124.528 90.3769 123.804 89.9466 122.479Z" fill="#995C8C"></path>
  <path fill-rule="evenodd" clip-rule="evenodd" d="M96.0529 120.39C95.4422 119.139 95.9611 117.63 97.2135 117.018C98.4647 116.408 99.9743 116.927 100.585 118.179C101.196 119.43 100.676 120.94 99.4252 121.551C98.1728 122.161 96.6636 121.642 96.0529 120.39Z" fill="#995C8C"></path>
  <path fill-rule="evenodd" clip-rule="evenodd" d="M101.807 117.472C101.027 116.317 101.332 114.75 102.486 113.972C103.641 113.192 105.208 113.497 105.986 114.651C106.766 115.806 106.462 117.373 105.307 118.151C104.153 118.931 102.586 118.627 101.807 117.472Z" fill="#995C8C"></path>
  <path fill-rule="evenodd" clip-rule="evenodd" d="M107.499 113.341C106.568 112.306 106.651 110.712 107.685 109.779C108.72 108.848 110.314 108.931 111.247 109.966C112.178 111.001 112.095 112.595 111.061 113.527C110.026 114.458 108.431 114.376 107.499 113.341Z" fill="#995C8C"></path>
  <path fill-rule="evenodd" clip-rule="evenodd" d="M111.415 45.7726C110.484 46.8078 108.89 46.8912 107.855 45.9601C106.819 45.0289 106.735 43.4346 107.667 42.3995C108.598 41.3647 110.193 41.2796 111.228 42.212C112.263 43.1431 112.346 44.7378 111.415 45.7726Z" fill="#995C8C"></path>
  <path fill-rule="evenodd" clip-rule="evenodd" d="M105.97 40.8942C105.191 42.0489 103.624 42.3538 102.47 41.5758C101.315 40.7969 101.01 39.2295 101.788 38.0748C102.567 36.92 104.133 36.6151 105.288 37.394C106.443 38.1721 106.748 39.7395 105.97 40.8942Z" fill="#995C8C"></path>
  <path fill-rule="evenodd" clip-rule="evenodd" d="M100.564 37.369C99.9534 38.6206 98.4447 39.1411 97.1926 38.5304C95.9406 37.9201 95.4205 36.4114 96.0312 35.1594C96.6415 33.9074 98.1502 33.3873 99.4022 33.9976C100.654 34.6083 101.174 36.117 100.564 37.369Z" fill="#995C8C"></path>
  <path fill-rule="evenodd" clip-rule="evenodd" d="M94.7207 34.6306C94.2908 35.9547 92.8681 36.6799 91.5439 36.25C90.2193 35.8197 89.4945 34.3982 89.9249 33.0732C90.3548 31.749 91.7767 31.0238 93.1013 31.4538C94.4254 31.8841 95.1511 33.3064 94.7207 34.6306Z" fill="#995C8C"></path>
  <path fill-rule="evenodd" clip-rule="evenodd" d="M88.5536 32.7322C88.312 34.1042 87.0042 35.0198 85.6335 34.7782C84.2619 34.537 83.3459 33.2296 83.5875 31.8577C83.8287 30.4861 85.1365 29.5701 86.5072 29.8117C87.8792 30.0528 88.7948 31.3606 88.5536 32.7322Z" fill="#995C8C"></path>
  <path fill-rule="evenodd" clip-rule="evenodd" d="M82.6526 21.0799C82.6111 22.1889 81.6786 23.0529 80.5697 23.0118C79.4619 22.9703 78.5966 22.0387 78.6382 20.9297C78.6797 19.8207 79.6121 18.9567 80.7198 18.9982C81.8288 19.0397 82.6941 19.9713 82.6526 21.0799Z" fill="#C0304A"></path>
  <path fill-rule="evenodd" clip-rule="evenodd" d="M76.6964 20.9108C76.7714 22.0177 75.9342 22.9753 74.8273 23.05C73.7205 23.1246 72.7629 22.2874 72.6882 21.181C72.6136 20.0749 73.4508 19.1165 74.5577 19.0418C75.6641 18.968 76.6217 19.8039 76.6964 20.9108Z" fill="#C0304A"></path>
  <path fill-rule="evenodd" clip-rule="evenodd" d="M70.7592 21.3654C70.9488 22.458 70.2173 23.4982 69.1238 23.6878C68.0307 23.8783 66.9905 23.1463 66.8014 22.0533C66.6118 20.9607 67.3441 19.9205 68.4367 19.73C69.5298 19.5404 70.5696 20.2724 70.7592 21.3654Z" fill="#C0304A"></path>
  <path fill-rule="evenodd" clip-rule="evenodd" d="M64.9002 22.4377C65.2035 23.5048 64.584 24.6154 63.5169 24.9187C62.4499 25.2215 61.3388 24.602 61.036 23.535C60.7327 22.4683 61.3522 21.3572 62.4193 21.054C63.4863 20.7512 64.5974 21.3707 64.9002 22.4377Z" fill="#C0304A"></path>
  <path fill-rule="evenodd" clip-rule="evenodd" d="M59.186 24.1167C59.5992 25.1464 59.0988 26.3158 58.0691 26.7281C57.0402 27.1412 55.8708 26.6413 55.4577 25.6124C55.0441 24.5823 55.5445 23.4129 56.5742 22.9997C57.6039 22.5874 58.7725 23.0866 59.186 24.1167Z" fill="#C0304A"></path>
  <path fill-rule="evenodd" clip-rule="evenodd" d="M53.6774 26.3836C54.1958 27.3647 53.8213 28.5798 52.8402 29.0982C51.8596 29.6166 50.6445 29.2412 50.1261 28.2602C49.6072 27.2795 49.9822 26.0644 50.9628 25.5468C51.9435 25.0284 53.159 25.403 53.6774 26.3836Z" fill="#C0304A"></path>
  <path fill-rule="evenodd" clip-rule="evenodd" d="M48.4361 29.2138C49.0552 30.1353 48.809 31.3827 47.8875 32.0005C46.966 32.6192 45.7186 32.373 45.1007 31.4514C44.4825 30.5304 44.7283 29.2825 45.6498 28.6651C46.5713 28.0473 47.8187 28.2927 48.4361 29.2138Z" fill="#C0304A"></path>
  <path fill-rule="evenodd" clip-rule="evenodd" d="M43.5227 32.5768C44.2337 33.4282 44.1196 34.6941 43.2677 35.405C42.4162 36.116 41.15 36.0027 40.439 35.1513C39.7285 34.2994 39.8426 33.0323 40.6945 32.3217C41.5446 31.6108 42.8122 31.7249 43.5227 32.5768Z" fill="#C0304A"></path>
  <path fill-rule="evenodd" clip-rule="evenodd" d="M38.9853 36.4343C39.7814 37.2069 39.8007 38.4782 39.0281 39.2743C38.2555 40.0704 36.9833 40.0897 36.1876 39.3171C35.3915 38.5445 35.3731 37.2732 36.1453 36.4771C36.9179 35.681 38.1892 35.6617 38.9853 36.4343Z" fill="#C0304A"></path>
  <path fill-rule="evenodd" clip-rule="evenodd" d="M34.8763 40.7458C35.7487 41.4303 35.8997 42.6941 35.2152 43.5657C34.5302 44.4381 33.2677 44.5904 32.3953 43.9054C31.5225 43.2196 31.3706 41.9571 32.0564 41.0847C32.7414 40.2123 34.0034 40.0609 34.8763 40.7458Z" fill="#C0304A"></path>
  <path fill-rule="evenodd" clip-rule="evenodd" d="M31.2381 45.4627C32.1772 46.0532 32.4599 47.2931 31.8697 48.2322C31.28 49.1713 30.0402 49.4544 29.1002 48.8639C28.1611 48.2737 27.878 47.0339 28.4685 46.0947C29.0587 45.1552 30.2985 44.8721 31.2381 45.4627Z" fill="#C0304A"></path>
  <path fill-rule="evenodd" clip-rule="evenodd" d="M28.1165 50.5339C29.1126 51.0229 29.5228 52.2267 29.0346 53.2216C28.5455 54.2178 27.3422 54.6292 26.346 54.1402C25.3511 53.6511 24.9396 52.4473 25.4287 51.452C25.9169 50.4559 27.1203 50.0448 28.1165 50.5339Z" fill="#C0304A"></path>
  <path fill-rule="evenodd" clip-rule="evenodd" d="M25.5407 55.9043C26.5818 56.2864 27.1165 57.4407 26.7344 58.4818C26.3527 59.5232 25.1985 60.058 24.157 59.6759C23.116 59.2938 22.5812 58.1399 22.9633 57.0985C23.345 56.0574 24.4993 55.5227 25.5407 55.9043Z" fill="#C0304A"></path>
  <path fill-rule="evenodd" clip-rule="evenodd" d="M23.5389 61.5141C24.6143 61.785 25.2666 62.8768 24.996 63.9523C24.7242 65.0277 23.6324 65.6803 22.557 65.4094C21.4811 65.1389 20.8289 64.0471 21.1007 62.9712C21.3713 61.8949 22.463 61.2436 23.5389 61.5141Z" fill="#C0304A"></path>
  <path fill-rule="evenodd" clip-rule="evenodd" d="M22.1368 67.3026C23.2349 67.4599 23.9978 68.4775 23.841 69.5755C23.6837 70.6736 22.6661 71.4366 21.568 71.2793C20.47 71.122 19.707 70.1049 19.8643 69.0068C20.0216 67.9087 21.0387 67.1457 22.1368 67.3026Z" fill="#C0304A"></path>
  <path fill-rule="evenodd" clip-rule="evenodd" d="M21.3441 73.2057C22.4531 73.2472 23.3171 74.1792 23.276 75.2886C23.2345 76.3964 22.3029 77.2617 21.1939 77.2201C20.0849 77.1782 19.2201 76.2462 19.2612 75.1381C19.3027 74.0295 20.2355 73.1642 21.3441 73.2057Z" fill="#C0304A"></path>
  <path fill-rule="evenodd" clip-rule="evenodd" d="M21.1767 79.1594C22.2832 79.0848 23.2408 79.9215 23.3154 81.0284C23.3905 82.1353 22.5533 83.0925 21.4464 83.1675C20.3395 83.2422 19.382 82.405 19.3073 81.2981C19.2331 80.1916 20.0699 79.2341 21.1767 79.1594Z" fill="#C0304A"></path>
  <path fill-rule="evenodd" clip-rule="evenodd" d="M21.6301 85.0976C22.7232 84.9084 23.7634 85.6395 23.9529 86.7326C24.1434 87.826 23.411 88.8654 22.3184 89.0558C21.2254 89.2454 20.1856 88.5131 19.9947 87.42C19.8051 86.3274 20.5375 85.2872 21.6301 85.0976Z" fill="#C0304A"></path>
  <path fill-rule="evenodd" clip-rule="evenodd" d="M22.7027 90.9567C23.7694 90.6534 24.8804 91.2729 25.1837 92.34C25.4865 93.407 24.867 94.5177 23.8 94.821C22.7329 95.1242 21.6223 94.5043 21.319 93.4377C21.0162 92.3706 21.6357 91.2595 22.7027 90.9567Z" fill="#C0304A"></path>
  <path fill-rule="evenodd" clip-rule="evenodd" d="M24.3805 96.6713C25.4106 96.2577 26.58 96.7581 26.9923 97.7878C27.4055 98.8167 26.9051 99.9861 25.8762 100.4C24.8465 100.813 23.6771 100.312 23.264 99.2827C22.8512 98.253 23.3508 97.0844 24.3805 96.6713Z" fill="#C0304A"></path>
  <path fill-rule="evenodd" clip-rule="evenodd" d="M26.6484 102.179C27.6294 101.66 28.8445 102.035 29.363 103.016C29.8814 103.996 29.5068 105.212 28.5258 105.73C27.5443 106.249 26.3288 105.874 25.8116 104.893C25.2928 103.912 25.6677 102.697 26.6484 102.179Z" fill="#C0304A"></path>
  <path fill-rule="evenodd" clip-rule="evenodd" d="M29.4793 107.419C30.4008 106.801 31.6482 107.047 32.266 107.968C32.8842 108.889 32.6385 110.137 31.717 110.754C30.7955 111.373 29.548 111.127 28.9306 110.206C28.3128 109.284 28.5582 108.037 29.4793 107.419Z" fill="#C0304A"></path>
  <path fill-rule="evenodd" clip-rule="evenodd" d="M32.8427 112.335C33.6941 111.624 34.9604 111.738 35.6714 112.59C36.3831 113.442 36.2686 114.708 35.4172 115.419C34.5657 116.13 33.2986 116.015 32.5877 115.165C31.8767 114.313 31.9912 113.046 32.8427 112.335Z" fill="#C0304A"></path>
  <path fill-rule="evenodd" clip-rule="evenodd" d="M36.6999 116.873C37.4725 116.076 38.7438 116.057 39.5399 116.83C40.336 117.602 40.3549 118.874 39.5827 119.671C38.8101 120.467 37.5379 120.486 36.7427 119.713C35.9466 118.94 35.9273 117.669 36.6999 116.873Z" fill="#C0304A"></path>
  <path fill-rule="evenodd" clip-rule="evenodd" d="M41.0107 120.982C41.6969 120.109 42.959 119.958 43.831 120.643C44.7034 121.328 44.8552 122.59 44.1707 123.463C43.4849 124.336 42.2224 124.487 41.35 123.802C40.4776 123.117 40.3262 121.855 41.0107 120.982Z" fill="#C0304A"></path>
  <path fill-rule="evenodd" clip-rule="evenodd" d="M45.7263 124.618C46.3165 123.679 47.5563 123.396 48.4959 123.987C49.435 124.576 49.7181 125.816 49.1276 126.755C48.537 127.695 47.2971 127.978 46.358 127.388C45.4189 126.798 45.1358 125.558 45.7263 124.618Z" fill="#C0304A"></path>
  <path fill-rule="evenodd" clip-rule="evenodd" d="M50.7978 127.741C51.2869 126.746 52.4898 126.335 53.4856 126.823C54.4817 127.312 54.8924 128.516 54.4037 129.512C53.9147 130.507 52.7113 130.918 51.716 130.429C50.7202 129.941 50.3088 128.738 50.7978 127.741Z" fill="#C0304A"></path>
  <path fill-rule="evenodd" clip-rule="evenodd" d="M56.1703 130.318C56.5524 129.276 57.7063 128.742 58.7477 129.124C59.7888 129.506 60.3236 130.66 59.9419 131.701C59.5598 132.743 58.4055 133.277 57.3644 132.895C56.323 132.513 55.7882 131.359 56.1703 130.318Z" fill="#C0304A"></path>
  <path fill-rule="evenodd" clip-rule="evenodd" d="M61.778 132.318C62.049 131.242 63.1408 130.59 64.2162 130.86C65.2916 131.132 65.9443 132.224 65.6733 133.3C65.4028 134.375 64.311 135.027 63.2351 134.756C62.1589 134.485 61.5075 133.393 61.778 132.318Z" fill="#C0304A"></path>
  <path fill-rule="evenodd" clip-rule="evenodd" d="M67.5674 133.721C67.7247 132.623 68.7423 131.86 69.8403 132.018C70.9384 132.175 71.7014 133.192 71.5441 134.29C71.3868 135.388 70.3697 136.151 69.2716 135.994C68.1735 135.837 67.4101 134.82 67.5674 133.721Z" fill="#C0304A"></path>
  <path fill-rule="evenodd" clip-rule="evenodd" d="M73.4722 134.512C73.5137 133.403 74.4457 132.538 75.5538 132.58C76.6628 132.621 77.5277 133.554 77.4862 134.662C77.4446 135.771 76.5122 136.635 75.4037 136.594C74.2955 136.553 73.4302 135.621 73.4722 134.512Z" fill="#C0304A"></path>
  <path fill-rule="evenodd" clip-rule="evenodd" d="M79.4246 134.681C79.3499 133.574 80.1867 132.617 81.2936 132.542C82.4005 132.467 83.358 133.304 83.4327 134.411C83.5073 135.518 82.6702 136.475 81.5637 136.55C80.4564 136.625 79.4992 135.788 79.4246 134.681Z" fill="#C0304A"></path>
  <path fill-rule="evenodd" clip-rule="evenodd" d="M85.364 134.227C85.174 133.134 85.9055 132.095 86.9994 131.905C88.092 131.714 89.1318 132.446 89.3218 133.539C89.5114 134.632 88.7791 135.672 87.686 135.863C86.5934 136.052 85.5532 135.32 85.364 134.227Z" fill="#C0304A"></path>
  <path fill-rule="evenodd" clip-rule="evenodd" d="M91.2213 133.155C90.9185 132.088 91.538 130.977 92.6051 130.674C93.6717 130.37 94.7828 130.99 95.086 132.057C95.3889 133.124 94.7694 134.235 93.7023 134.538C92.6353 134.841 91.5246 134.221 91.2213 133.155Z" fill="#C0304A"></path>
  <path fill-rule="evenodd" clip-rule="evenodd" d="M96.936 131.476C96.5229 130.445 97.0228 129.277 98.053 128.864C99.0818 128.451 100.251 128.951 100.664 129.98C101.078 131.01 100.578 132.179 99.5474 132.592C98.5185 133.005 97.3491 132.505 96.936 131.476Z" fill="#C0304A"></path>
  <path fill-rule="evenodd" clip-rule="evenodd" d="M102.444 129.209C101.926 128.228 102.3 127.013 103.281 126.494C104.262 125.976 105.477 126.351 105.996 127.332C106.514 128.313 106.139 129.528 105.159 130.046C104.178 130.564 102.963 130.19 102.444 129.209Z" fill="#C0304A"></path>
  <path fill-rule="evenodd" clip-rule="evenodd" d="M107.684 126.378C107.067 125.457 107.312 124.209 108.233 123.592C109.154 122.973 110.402 123.219 111.021 124.14C111.638 125.062 111.392 126.309 110.471 126.927C109.551 127.545 108.302 127.3 107.684 126.378Z" fill="#C0304A"></path>
  <path fill-rule="evenodd" clip-rule="evenodd" d="M112.599 123.016C111.888 122.164 112.003 120.898 112.854 120.187C113.705 119.477 114.972 119.59 115.683 120.441C116.394 121.293 116.28 122.56 115.428 123.271C114.576 123.982 113.31 123.868 112.599 123.016Z" fill="#C0304A"></path>
  <path fill-rule="evenodd" clip-rule="evenodd" d="M116.997 119.342C116.201 118.57 116.181 117.297 116.954 116.502C117.726 115.706 118.999 115.687 119.794 116.46C120.59 117.232 120.609 118.503 119.837 119.299C119.064 120.095 117.793 120.115 116.997 119.342Z" fill="#C0304A"></path>
  <path fill-rule="evenodd" clip-rule="evenodd" d="M119.423 38.7198C118.65 39.5159 117.378 39.5348 116.583 38.7626C115.786 37.99 115.767 36.7179 116.54 35.9218C117.312 35.1257 118.585 35.1072 119.38 35.8798C120.176 36.652 120.195 37.9233 119.423 38.7198Z" fill="#C0304A"></path>
  <path fill-rule="evenodd" clip-rule="evenodd" d="M115.112 34.6102C114.427 35.4826 113.163 35.6348 112.292 34.9491C111.419 34.2641 111.267 33.002 111.952 32.1292C112.637 31.2568 113.9 31.1045 114.773 31.7903C115.645 32.4752 115.796 33.7377 115.112 34.6102Z" fill="#C0304A"></path>
  <path fill-rule="evenodd" clip-rule="evenodd" d="M110.395 30.9739C109.805 31.913 108.565 32.1957 107.626 31.6056C106.686 31.0159 106.403 29.776 106.994 28.8369C107.584 27.8978 108.824 27.6146 109.763 28.2044C110.703 28.7945 110.986 30.0348 110.395 30.9739Z" fill="#C0304A"></path>
  <path fill-rule="evenodd" clip-rule="evenodd" d="M105.324 27.8508C104.835 28.8469 103.631 29.2571 102.636 28.7689C101.64 28.2798 101.229 27.0765 101.718 26.0812C102.207 25.0854 103.41 24.6739 104.406 25.163C105.402 25.6512 105.813 26.8546 105.324 27.8508Z" fill="#C0304A"></path>
  <path fill-rule="evenodd" clip-rule="evenodd" d="M99.9536 25.2746C99.5715 26.3156 98.4172 26.8504 97.3762 26.4683C96.3347 26.0866 95.7999 24.9323 96.182 23.8909C96.5641 22.8498 97.7184 22.3151 98.7595 22.6972C99.8009 23.0788 100.335 24.2331 99.9536 25.2746Z" fill="#C0304A"></path>
  <path fill-rule="evenodd" clip-rule="evenodd" d="M94.3433 23.2738C94.0728 24.3493 92.9806 25.0015 91.9051 24.7309C90.8297 24.4592 90.1771 23.3674 90.448 22.2919C90.7186 21.2161 91.8108 20.5638 92.8862 20.8356C93.9625 21.1062 94.6143 22.198 94.3433 23.2738Z" fill="#C0304A"></path>
  <path fill-rule="evenodd" clip-rule="evenodd" d="M88.5539 21.8707C88.3966 22.9688 87.3794 23.7313 86.2814 23.5749C85.1829 23.4176 84.4199 22.3992 84.5772 21.3023C84.7345 20.2038 85.7516 19.4409 86.8497 19.5982C87.9478 19.7555 88.7111 20.7726 88.5539 21.8707Z" fill="#C0304A"></path>
  <path fill-rule="evenodd" clip-rule="evenodd" d="M82.834 11.2814C82.7979 12.1593 82.0576 12.8405 81.181 12.8044C80.3044 12.7688 79.6219 12.0293 79.6576 11.1514C79.6937 10.2748 80.4344 9.59237 81.311 9.62844C82.1876 9.66409 82.87 10.4048 82.834 11.2814Z" fill="#008186"></path>
  <path fill-rule="evenodd" clip-rule="evenodd" d="M75.8518 11.1475C75.9075 12.0233 75.2423 12.7791 74.3665 12.8349C73.4903 12.8911 72.7349 12.2263 72.6791 11.3505C72.6225 10.4735 73.2877 9.71847 74.1644 9.66227C75.0402 9.60648 75.796 10.2713 75.8518 11.1475Z" fill="#008186"></path>
  <path fill-rule="evenodd" clip-rule="evenodd" d="M68.8948 11.7435C69.0424 12.6092 68.4598 13.43 67.5949 13.5773C66.7288 13.7241 65.9075 13.1423 65.7612 12.2766C65.6135 11.4113 66.1961 10.59 67.061 10.4424C67.9267 10.2956 68.7475 10.8774 68.8948 11.7435Z" fill="#008186"></path>
  <path fill-rule="evenodd" clip-rule="evenodd" d="M62.0388 13.063C62.2758 13.909 61.7826 14.7861 60.9378 15.0222C60.0918 15.2592 59.2148 14.7663 58.9774 13.9212C58.7404 13.0752 59.2336 12.1981 60.0796 11.9612C60.9244 11.725 61.8019 12.2183 62.0388 13.063Z" fill="#008186"></path>
  <path fill-rule="evenodd" clip-rule="evenodd" d="M55.3602 15.0926C55.6844 15.9079 55.2851 16.832 54.4697 17.1562C53.6531 17.4804 52.7291 17.0815 52.4057 16.2657C52.0814 15.4495 52.4807 14.5255 53.2961 14.2021C54.1115 13.8779 55.0355 14.2759 55.3602 15.0926Z" fill="#008186"></path>
  <path fill-rule="evenodd" clip-rule="evenodd" d="M48.9258 17.8091C49.333 18.5871 49.0331 19.5472 48.2551 19.9553C47.4775 20.3626 46.5174 20.0627 46.1101 19.2846C45.702 18.507 46.0019 17.5469 46.7799 17.1384C47.5576 16.7315 48.5185 17.0314 48.9258 17.8091Z" fill="#008186"></path>
  <path fill-rule="evenodd" clip-rule="evenodd" d="M42.8152 21.1831C43.3014 21.9142 43.1038 22.9011 42.3732 23.3872C41.6421 23.8742 40.656 23.6754 40.169 22.9447C39.6821 22.214 39.8809 21.2275 40.6115 20.741C41.3422 20.2549 42.3287 20.4524 42.8152 21.1831Z" fill="#008186"></path>
  <path fill-rule="evenodd" clip-rule="evenodd" d="M37.0871 25.1776C37.6474 25.8537 37.5535 26.8549 36.8774 27.4157C36.2012 27.9761 35.1996 27.8821 34.6392 27.206C34.0789 26.5307 34.1728 25.5282 34.849 24.9679C35.5251 24.4083 36.5267 24.5015 37.0871 25.1776Z" fill="#008186"></path>
  <path fill-rule="evenodd" clip-rule="evenodd" d="M31.81 29.7484C32.4383 30.3624 32.4488 31.3683 31.836 31.9962C31.2223 32.6245 30.2153 32.6354 29.5882 32.0222C28.9603 31.4081 28.9482 30.4019 29.5622 29.7744C30.1763 29.1465 31.1821 29.1348 31.81 29.7484Z" fill="#008186"></path>
  <path fill-rule="evenodd" clip-rule="evenodd" d="M27.0387 34.847C27.7274 35.391 27.8436 36.391 27.2996 37.0797C26.7543 37.768 25.7552 37.8846 25.0669 37.3401C24.3782 36.7953 24.2608 35.7962 24.806 35.1075C25.35 34.4192 26.35 34.3017 27.0387 34.847Z" fill="#008186"></path>
  <path fill-rule="evenodd" clip-rule="evenodd" d="M22.8253 40.4154C23.5672 40.8847 23.7875 41.867 23.3181 42.609C22.8479 43.3502 21.8664 43.5704 21.1244 43.101C20.3825 42.6317 20.1618 41.6489 20.6316 40.9082C21.1018 40.1662 22.0833 39.9456 22.8253 40.4154Z" fill="#008186"></path>
  <path fill-rule="evenodd" clip-rule="evenodd" d="M19.2192 46.3935C20.0056 46.7836 20.3278 47.737 19.9381 48.5234C19.5489 49.3107 18.5955 49.632 17.8078 49.2419C17.0218 48.8531 16.6996 47.8997 17.0893 47.1125C17.4781 46.326 18.4319 46.0039 19.2192 46.3935Z" fill="#008186"></path>
  <path fill-rule="evenodd" clip-rule="evenodd" d="M16.2575 52.7163C17.0804 53.0216 17.5003 53.936 17.1958 54.7589C16.8904 55.5823 15.9756 56.0026 15.1523 55.6972C14.3298 55.3915 13.9095 54.4771 14.2149 53.6533C14.5194 52.8308 15.435 52.4105 16.2575 52.7163Z" fill="#008186"></path>
  <path fill-rule="evenodd" clip-rule="evenodd" d="M13.9724 59.3138C14.8222 59.5319 15.336 60.3972 15.1179 61.2478C14.9011 62.098 14.0349 62.6114 13.1847 62.3937C12.3337 62.1769 11.8212 61.3107 12.038 60.4597C12.2561 59.6095 13.1214 59.0961 13.9724 59.3138Z" fill="#008186"></path>
  <path fill-rule="evenodd" clip-rule="evenodd" d="M12.3887 66.1138C13.2569 66.2409 13.858 67.0487 13.7309 67.917C13.603 68.7865 12.796 69.3863 11.9269 69.2596C11.0582 69.1321 10.4576 68.3247 10.5855 67.4564C10.7126 66.5878 11.52 65.9867 12.3887 66.1138Z" fill="#008186"></path>
  <path fill-rule="evenodd" clip-rule="evenodd" d="M11.5255 73.0426C12.4021 73.0782 13.0845 73.8189 13.0484 74.6956C13.0128 75.5734 12.2721 76.2546 11.3954 76.219C10.5188 76.1829 9.83639 75.4434 9.87246 74.5655C9.90811 73.6889 10.6488 73.0065 11.5255 73.0426Z" fill="#008186"></path>
  <path fill-rule="evenodd" clip-rule="evenodd" d="M11.3928 80.0234C12.2686 79.968 13.0244 80.6328 13.0802 81.5086C13.1364 82.3848 12.4716 83.1406 11.5958 83.1964C10.7188 83.2526 9.96419 82.5878 9.90757 81.7108C9.85178 80.835 10.5166 80.0791 11.3928 80.0234Z" fill="#008186"></path>
  <path fill-rule="evenodd" clip-rule="evenodd" d="M11.9872 86.9801C12.8529 86.8324 13.6733 87.415 13.821 88.2812C13.9673 89.1461 13.386 89.9677 12.5199 90.1141C11.655 90.2618 10.8337 89.6792 10.6869 88.8143C10.5393 87.9481 11.1219 87.1277 11.9872 86.9801Z" fill="#008186"></path>
  <path fill-rule="evenodd" clip-rule="evenodd" d="M13.3079 93.8368C14.1526 93.5994 15.0309 94.0931 15.2666 94.9387C15.504 95.7834 15.0108 96.6609 14.1656 96.8979C13.32 97.1353 12.4426 96.6416 12.2056 95.796C11.9695 94.9509 12.4619 94.0738 13.3079 93.8368Z" fill="#008186"></path>
  <path fill-rule="evenodd" clip-rule="evenodd" d="M15.3371 100.517C16.1538 100.194 17.0778 100.592 17.4012 101.408C17.7254 102.224 17.3265 103.148 16.5107 103.472C15.6945 103.796 14.7701 103.397 14.4467 102.581C14.1225 101.766 14.5218 100.842 15.3371 100.517Z" fill="#008186"></path>
  <path fill-rule="evenodd" clip-rule="evenodd" d="M18.0537 106.949C18.8313 106.542 19.7914 106.842 20.1995 107.619C20.6068 108.397 20.3069 109.358 19.5288 109.765C18.7512 110.173 17.7911 109.873 17.383 109.095C16.9757 108.318 17.2756 107.357 18.0537 106.949Z" fill="#008186"></path>
  <path fill-rule="evenodd" clip-rule="evenodd" d="M21.4274 113.062C22.1585 112.575 23.1454 112.774 23.6315 113.504C24.1185 114.235 23.9205 115.222 23.189 115.709C22.4584 116.194 21.4718 115.997 20.9849 115.266C20.4992 114.535 20.6967 113.548 21.4274 113.062Z" fill="#008186"></path>
  <path fill-rule="evenodd" clip-rule="evenodd" d="M25.4209 118.789C26.097 118.228 27.0982 118.322 27.659 118.998C28.2194 119.673 28.1254 120.676 27.4493 121.237C26.774 121.796 25.7715 121.703 25.2112 121.027C24.6516 120.351 24.7447 119.349 25.4209 118.789Z" fill="#008186"></path>
  <path fill-rule="evenodd" clip-rule="evenodd" d="M29.9937 124.066C30.6078 123.438 31.6136 123.427 32.2419 124.04C32.8698 124.654 32.8807 125.661 32.2679 126.288C31.6538 126.916 30.6472 126.928 30.0197 126.314C29.3918 125.7 29.3801 124.694 29.9937 124.066Z" fill="#008186"></path>
  <path fill-rule="evenodd" clip-rule="evenodd" d="M35.0905 128.838C35.6358 128.149 36.6349 128.033 37.3232 128.577C38.0119 129.122 38.1293 130.121 37.5841 130.81C37.0392 131.498 36.0397 131.615 35.3514 131.07C34.6631 130.526 34.5465 129.526 35.0905 128.838Z" fill="#008186"></path>
  <path fill-rule="evenodd" clip-rule="evenodd" d="M40.6609 133.05C41.1303 132.308 42.1126 132.087 42.8546 132.557C43.5957 133.027 43.8159 134.009 43.3466 134.75C42.8772 135.492 41.8945 135.713 41.1537 135.243C40.4118 134.773 40.1911 133.792 40.6609 133.05Z" fill="#008186"></path>
  <path fill-rule="evenodd" clip-rule="evenodd" d="M46.6381 136.657C47.0282 135.87 47.982 135.548 48.768 135.938C49.5545 136.327 49.877 137.28 49.4865 138.068C49.0977 138.854 48.1443 139.176 47.357 138.786C46.5706 138.397 46.2485 137.443 46.6381 136.657Z" fill="#008186"></path>
  <path fill-rule="evenodd" clip-rule="evenodd" d="M52.961 139.619C53.2663 138.796 54.1811 138.376 55.0036 138.681C55.8274 138.986 56.2473 139.901 55.9419 140.724C55.6366 141.547 54.7218 141.967 53.8993 141.661C53.0755 141.357 52.6556 140.441 52.961 139.619Z" fill="#008186"></path>
  <path fill-rule="evenodd" clip-rule="evenodd" d="M59.5578 141.904C59.7755 141.053 60.6412 140.54 61.4918 140.757C62.342 140.975 62.8554 141.841 62.6377 142.691C62.4209 143.542 61.5547 144.055 60.7045 143.838C59.8535 143.62 59.3401 142.754 59.5578 141.904Z" fill="#008186"></path>
  <path fill-rule="evenodd" clip-rule="evenodd" d="M66.3607 143.487C66.4878 142.618 67.2956 142.017 68.1639 142.144C69.0334 142.272 69.634 143.079 69.5061 143.948C69.379 144.817 68.5716 145.418 67.7029 145.29C66.8347 145.163 66.2336 144.355 66.3607 143.487Z" fill="#008186"></path>
  <path fill-rule="evenodd" clip-rule="evenodd" d="M73.2865 144.35C73.3226 143.472 74.0629 142.791 74.9395 142.827C75.8174 142.862 76.4986 143.602 76.4629 144.48C76.4268 145.357 75.6874 146.039 74.8095 146.003C73.9329 145.967 73.2505 145.227 73.2865 144.35Z" fill="#008186"></path>
  <path fill-rule="evenodd" clip-rule="evenodd" d="M80.2688 144.485C80.2135 143.608 80.8783 142.853 81.7541 142.797C82.6303 142.741 83.3861 143.405 83.4415 144.282C83.4981 145.158 82.8333 145.913 81.9562 145.97C81.0805 146.026 80.3246 145.36 80.2688 144.485Z" fill="#008186"></path>
  <path fill-rule="evenodd" clip-rule="evenodd" d="M87.2239 143.888C87.0767 143.022 87.6589 142.202 88.5242 142.054C89.3899 141.908 90.2116 142.489 90.358 143.355C90.5056 144.22 89.923 145.042 89.0581 145.188C88.192 145.336 87.3716 144.754 87.2239 143.888Z" fill="#008186"></path>
  <path fill-rule="evenodd" clip-rule="evenodd" d="M94.083 142.569C93.8456 141.724 94.3393 140.846 95.1848 140.609C96.0296 140.372 96.9071 140.866 97.144 141.711C97.3814 142.557 96.8878 143.434 96.0422 143.671C95.197 143.907 94.32 143.414 94.083 142.569Z" fill="#008186"></path>
  <path fill-rule="evenodd" clip-rule="evenodd" d="M100.761 140.539C100.437 139.723 100.836 138.799 101.652 138.475C102.468 138.151 103.392 138.55 103.715 139.366C104.04 140.182 103.641 141.106 102.825 141.43C102.009 141.754 101.085 141.355 100.761 140.539Z" fill="#008186"></path>
  <path fill-rule="evenodd" clip-rule="evenodd" d="M107.193 137.822C106.786 137.044 107.086 136.084 107.864 135.676C108.641 135.269 109.602 135.569 110.01 136.347C110.417 137.125 110.118 138.085 109.34 138.493C108.562 138.9 107.601 138.6 107.193 137.822Z" fill="#008186"></path>
  <path fill-rule="evenodd" clip-rule="evenodd" d="M113.307 134.448C112.821 133.718 113.019 132.731 113.75 132.245C114.48 131.758 115.468 131.956 115.953 132.687C116.44 133.418 116.242 134.404 115.511 134.891C114.78 135.377 113.794 135.179 113.307 134.448Z" fill="#008186"></path>
  <path fill-rule="evenodd" clip-rule="evenodd" d="M119.034 130.454C118.473 129.778 118.568 128.776 119.244 128.216C119.919 127.655 120.921 127.749 121.481 128.425C122.041 129.101 121.948 130.103 121.272 130.663C120.596 131.223 119.594 131.13 119.034 130.454Z" fill="#008186"></path>
  <path fill-rule="evenodd" clip-rule="evenodd" d="M125.418 124.679C124.79 124.065 124.779 123.06 125.392 122.432C126.006 121.803 127.013 121.792 127.64 122.406C128.268 123.019 128.28 124.026 127.666 124.653C127.052 125.281 126.046 125.294 125.418 124.679Z" fill="#008186"></path>
  <path fill-rule="evenodd" clip-rule="evenodd" d="M126.674 32.1604C126.06 32.7883 125.054 32.7992 124.426 32.1864C123.798 31.5724 123.786 30.5657 124.4 29.9387C125.014 29.3103 126.02 29.2986 126.648 29.9127C127.276 30.5267 127.288 31.5325 126.674 32.1604Z" fill="#008186"></path>
  <path fill-rule="evenodd" clip-rule="evenodd" d="M121.028 26.7939C120.483 27.4822 119.484 27.5988 118.795 27.0548C118.107 26.5095 117.99 25.5104 118.534 24.8221C119.08 24.1334 120.079 24.0159 120.767 24.5612C121.456 25.1052 121.572 26.1056 121.028 26.7939Z" fill="#008186"></path>
  <path fill-rule="evenodd" clip-rule="evenodd" d="M115.462 22.5821C114.992 23.3241 114.01 23.5447 113.268 23.0741C112.527 22.6047 112.306 21.6233 112.776 20.8813C113.246 20.1393 114.228 19.9191 114.97 20.3884C115.711 20.8578 115.931 21.8401 115.462 22.5821Z" fill="#008186"></path>
  <path fill-rule="evenodd" clip-rule="evenodd" d="M109.483 18.9752C109.093 19.7612 108.139 20.0837 107.353 19.6937C106.567 19.3048 106.244 18.351 106.634 17.5642C107.023 16.7777 107.977 16.4552 108.764 16.8453C109.55 17.2349 109.873 18.1887 109.483 18.9752Z" fill="#008186"></path>
  <path fill-rule="evenodd" clip-rule="evenodd" d="M103.161 16.0127C102.855 16.8356 101.941 17.2555 101.118 16.9501C100.294 16.6456 99.8744 15.7308 100.18 14.9075C100.485 14.085 101.4 13.6647 102.222 13.97C103.046 14.2745 103.466 15.1893 103.161 16.0127Z" fill="#008186"></path>
  <path fill-rule="evenodd" clip-rule="evenodd" d="M96.5633 13.7278C96.3456 14.5784 95.4803 15.091 94.6292 14.8741C93.779 14.6564 93.2657 13.7899 93.4838 12.9401C93.7006 12.0891 94.5667 11.5765 95.4178 11.7934C96.268 12.0111 96.781 12.8776 96.5633 13.7278Z" fill="#008186"></path>
  <path fill-rule="evenodd" clip-rule="evenodd" d="M89.7639 12.1451C89.6368 13.0133 88.8289 13.6144 87.9607 13.4873C87.0925 13.3594 86.4914 12.5524 86.6185 11.6841C86.7456 10.8146 87.553 10.214 88.4217 10.3419C89.2899 10.4686 89.891 11.2764 89.7639 12.1451Z" fill="#008186"></path>
  <path fill-rule="evenodd" clip-rule="evenodd" d="M85.0203 1.20758C84.9792 1.7885 84.475 2.22597 83.8937 2.18486C83.3132 2.14334 82.8753 1.63834 82.9168 1.05784C82.9579 0.47734 83.4629 0.0394483 84.0434 0.0809725C84.6247 0.122497 85.0618 0.627498 85.0203 1.20758Z" fill="#008186"></path>
  <path fill-rule="evenodd" clip-rule="evenodd" d="M74.272 0.982314C74.3119 1.56365 73.8732 2.06614 73.2922 2.1064C72.7113 2.14625 72.2084 1.70794 72.1686 1.12702C72.1283 0.5461 72.5679 0.0427768 73.1488 0.00251089C73.7293 -0.0373355 74.2322 0.401814 74.272 0.982314Z" fill="#008186"></path>
  <path fill-rule="evenodd" clip-rule="evenodd" d="M63.5979 2.2552C63.7183 2.82563 63.3534 3.38474 62.7846 3.50512C62.2142 3.62549 61.6551 3.261 61.5347 2.69099C61.4143 2.12182 61.7788 1.56229 62.348 1.44191C62.918 1.32153 63.4775 1.68644 63.5979 2.2552Z" fill="#008186"></path>
  <path fill-rule="evenodd" clip-rule="evenodd" d="M53.2041 5.00047C53.4029 5.54825 53.1193 6.15224 52.572 6.35147C52.0246 6.54986 51.4202 6.26632 51.2214 5.71896C51.0234 5.17202 51.3061 4.56719 51.8535 4.36838C52.4008 4.1704 53.0057 4.45352 53.2041 5.00047Z" fill="#008186"></path>
  <path fill-rule="evenodd" clip-rule="evenodd" d="M43.2947 9.16624C43.5674 9.68089 43.3719 10.3188 42.8564 10.5919C42.3426 10.8645 41.7042 10.6682 41.432 10.154C41.1586 9.63978 41.3549 9.0014 41.8691 8.72835C42.3842 8.45571 43.0225 8.65201 43.2947 9.16624Z" fill="#008186"></path>
  <path fill-rule="evenodd" clip-rule="evenodd" d="M34.0623 14.67C34.4037 15.1415 34.2992 15.8008 33.8274 16.1418C33.3559 16.4845 32.697 16.3788 32.3547 15.9074C32.0133 15.4355 32.1186 14.7762 32.5905 14.4343C33.0619 14.0929 33.7213 14.1986 34.0623 14.67Z" fill="#008186"></path>
  <path fill-rule="evenodd" clip-rule="evenodd" d="M25.6866 21.4054C26.0901 21.8244 26.078 22.4921 25.6581 22.8956C25.2387 23.3004 24.5722 23.2878 24.1674 22.8684C23.7639 22.4489 23.7769 21.7812 24.1959 21.3777C24.6154 20.9729 25.2827 20.9859 25.6866 21.4054Z" fill="#008186"></path>
  <path fill-rule="evenodd" clip-rule="evenodd" d="M18.3273 29.2412C18.7858 29.6006 18.8663 30.2629 18.5073 30.7209C18.1482 31.1802 17.486 31.2599 17.0267 30.9009C16.5686 30.5418 16.4885 29.8791 16.8476 29.4211C17.2058 28.9631 17.8693 28.8821 18.3273 29.2412Z" fill="#008186"></path>
  <path fill-rule="evenodd" clip-rule="evenodd" d="M12.1315 38.0245C12.6356 38.3164 12.8072 38.9615 12.5152 39.4648C12.2233 39.969 11.5782 40.1406 11.0749 39.8495C10.5707 39.5575 10.3992 38.9124 10.6911 38.4083C10.9822 37.9041 11.6273 37.7326 12.1315 38.0245Z" fill="#008186"></path>
  <path fill-rule="evenodd" clip-rule="evenodd" d="M7.21666 47.5848C7.75606 47.8033 8.01569 48.4182 7.79716 48.958C7.57864 49.4974 6.96374 49.7579 6.42393 49.5385C5.88454 49.32 5.62407 48.7051 5.84343 48.1657C6.06196 47.6259 6.67685 47.3662 7.21666 47.5848Z" fill="#008186"></path>
  <path fill-rule="evenodd" clip-rule="evenodd" d="M3.68231 57.7362C4.24729 57.8779 4.58955 58.4505 4.4482 59.0154C4.30727 59.5804 3.7339 59.9231 3.16976 59.7813C2.60478 59.6404 2.26126 59.067 2.40303 58.5021C2.5448 57.9379 3.11733 57.5944 3.68231 57.7362Z" fill="#008186"></path>
  <mask id="mask0_1997_76359" style="mask-type:luminance" maskUnits="userSpaceOnUse" x="0" y="68" width="3" height="14">
    <path d="M0 68.2749H2.53724V81.1213H0V68.2749Z" fill="#008186"></path>
  </mask>
  <g mask="url(#mask0_1997_76359)">
    <path fill-rule="evenodd" clip-rule="evenodd" d="M1.59357 68.2809C2.17281 68.3422 2.59183 68.8623 2.53059 69.4415C2.46852 70.0195 1.94883 70.4398 1.37001 70.3777C0.790771 70.316 0.371754 69.7968 0.433831 69.2175C0.495488 68.6387 1.01433 68.2193 1.59357 68.2809Z" fill="#008186"></path>
  </g>
  <mask id="mask1_1997_76359" style="mask-type:luminance" maskUnits="userSpaceOnUse" x="0" y="68" width="3" height="14">
    <path d="M0 68.2749H2.53724V81.1213H0V68.2749Z" fill="#008186"></path>
  </mask>
  <g mask="url(#mask1_1997_76359)">
    <path fill-rule="evenodd" clip-rule="evenodd" d="M0.992033 79.0132C1.57421 78.9939 2.06118 79.4499 2.08089 80.032C2.1006 80.6134 1.64426 81.1012 1.06334 81.1209C0.48074 81.141 -0.00706424 80.6843 -0.0267777 80.1025C-0.0456524 79.5203 0.409855 79.0334 0.992033 79.0132Z" fill="#008186"></path>
  </g>
  <path fill-rule="evenodd" clip-rule="evenodd" d="M1.89235 89.725C2.46572 89.6248 3.01267 90.0086 3.11249 90.5815C3.21274 91.1549 2.82979 91.701 2.25559 91.8021C1.68222 91.9019 1.13611 91.519 1.03545 90.9447C0.9352 90.3718 1.31898 89.8257 1.89235 89.725Z" fill="#008186"></path>
  <path fill-rule="evenodd" clip-rule="evenodd" d="M4.27541 100.207C4.82949 100.028 5.42425 100.332 5.60335 100.886C5.78244 101.44 5.47835 102.034 4.92428 102.213C4.3702 102.392 3.77544 102.088 3.59634 101.535C3.41724 100.981 3.72092 100.386 4.27541 100.207Z" fill="#008186"></path>
  <path fill-rule="evenodd" clip-rule="evenodd" d="M8.09179 110.255C8.61567 110.001 9.2465 110.219 9.5011 110.743C9.75528 111.267 9.53675 111.898 9.01371 112.152C8.48984 112.406 7.85859 112.189 7.60441 111.665C7.34981 111.141 7.56792 110.51 8.09179 110.255Z" fill="#008186"></path>
  <path fill-rule="evenodd" clip-rule="evenodd" d="M13.2708 119.675C13.754 119.35 14.4087 119.478 14.7334 119.961C15.0584 120.444 14.9305 121.099 14.4473 121.424C13.9641 121.749 13.3094 121.621 12.9843 121.138C12.6592 120.655 12.7876 120 13.2708 119.675Z" fill="#008186"></path>
  <path fill-rule="evenodd" clip-rule="evenodd" d="M19.7092 128.283C20.1421 127.894 20.809 127.929 21.1978 128.363C21.5866 128.796 21.5509 129.463 21.1181 129.852C20.6844 130.241 20.0183 130.205 19.6295 129.771C19.2399 129.338 19.2763 128.671 19.7092 128.283Z" fill="#008186"></path>
  <path fill-rule="evenodd" clip-rule="evenodd" d="M27.2829 135.91C27.6574 135.464 28.3227 135.407 28.7681 135.781C29.214 136.157 29.271 136.822 28.8964 137.268C28.5215 137.713 27.8562 137.77 27.4112 137.395C26.9649 137.02 26.9079 136.355 27.2829 135.91Z" fill="#008186"></path>
  <path fill-rule="evenodd" clip-rule="evenodd" d="M35.8449 142.409C36.1544 141.916 36.8046 141.766 37.2982 142.076C37.7919 142.385 37.9412 143.036 37.6317 143.529C37.3222 144.023 36.6712 144.172 36.1784 143.862C35.6847 143.553 35.5354 142.903 35.8449 142.409Z" fill="#008186"></path>
  <path fill-rule="evenodd" clip-rule="evenodd" d="M45.2286 147.653C45.466 147.121 46.0893 146.883 46.6207 147.12C47.153 147.359 47.3908 147.982 47.1534 148.514C46.9165 149.044 46.2932 149.284 45.7613 149.046C45.2295 148.808 44.9912 148.184 45.2286 147.653Z" fill="#008186"></path>
  <path fill-rule="evenodd" clip-rule="evenodd" d="M55.2488 151.54C55.4103 150.981 55.9937 150.658 56.5537 150.819C57.1132 150.981 57.4361 151.565 57.2747 152.125C57.1132 152.684 56.5297 153.007 55.9694 152.845C55.4103 152.684 55.0869 152.1 55.2488 151.54Z" fill="#008186"></path>
  <mask id="mask2_1997_76359" style="mask-type:luminance" maskUnits="userSpaceOnUse" x="65" y="153" width="14" height="3">
    <path d="M65.7031 153.089H78.5276V156H65.7031V153.089Z" fill="#008186"></path>
  </mask>
  <g mask="url(#mask2_1997_76359)">
    <path fill-rule="evenodd" clip-rule="evenodd" d="M65.7138 153.995C65.7964 153.418 66.3295 153.017 66.9062 153.1C67.4821 153.181 67.8831 153.714 67.8017 154.291C67.7195 154.868 67.186 155.269 66.6093 155.187C66.0338 155.105 65.6316 154.572 65.7138 153.995Z" fill="#008186"></path>
  </g>
  <mask id="mask3_1997_76359" style="mask-type:luminance" maskUnits="userSpaceOnUse" x="65" y="153" width="14" height="3">
    <path d="M65.7031 153.089H78.5276V156H65.7031V153.089Z" fill="#008186"></path>
  </mask>
  <g mask="url(#mask3_1997_76359)">
    <path fill-rule="evenodd" clip-rule="evenodd" d="M76.4199 154.97C76.4203 154.387 76.8926 153.916 77.4752 153.916C78.0578 153.918 78.5289 154.39 78.5284 154.973C78.5272 155.555 78.0549 156.026 77.4731 156.025C76.8905 156.025 76.4187 155.552 76.4199 154.97Z" fill="#008186"></path>
  </g>
  <path fill-rule="evenodd" clip-rule="evenodd" d="M87.1567 154.444C87.0762 153.868 87.4793 153.335 88.0556 153.255C88.6319 153.175 89.1646 153.577 89.2451 154.154C89.3256 154.731 88.923 155.263 88.3462 155.343C87.7691 155.424 87.2373 155.022 87.1567 154.444Z" fill="#008186"></path>
  <path fill-rule="evenodd" clip-rule="evenodd" d="M97.7146 152.431C97.5548 151.871 97.879 151.287 98.4394 151.128C98.9993 150.968 99.5823 151.292 99.7421 151.852C99.9024 152.412 99.5773 152.995 99.0169 153.155C98.4578 153.315 97.874 152.991 97.7146 152.431Z" fill="#008186"></path>
  <path fill-rule="evenodd" clip-rule="evenodd" d="M107.892 148.967C107.655 148.434 107.895 147.812 108.428 147.575C108.961 147.339 109.583 147.579 109.819 148.112C110.056 148.644 109.815 149.267 109.283 149.503C108.751 149.74 108.128 149.499 107.892 148.967Z" fill="#008186"></path>
  <path fill-rule="evenodd" clip-rule="evenodd" d="M117.488 144.12C117.18 143.626 117.331 142.976 117.825 142.667C118.319 142.359 118.97 142.511 119.278 143.005C119.585 143.5 119.434 144.149 118.939 144.458C118.446 144.765 117.795 144.614 117.488 144.12Z" fill="#008186"></path>
  <path fill-rule="evenodd" clip-rule="evenodd" d="M126.832 137.436C126.458 136.99 126.517 136.325 126.963 135.951C127.411 135.577 128.075 135.636 128.449 136.083C128.822 136.53 128.763 137.195 128.317 137.568C127.87 137.942 127.205 137.883 126.832 137.436Z" fill="#008186"></path>
  <path fill-rule="evenodd" clip-rule="evenodd" d="M133.699 129.655C133.267 129.265 133.233 128.599 133.624 128.166C134.014 127.734 134.68 127.7 135.112 128.09C135.545 128.481 135.578 129.147 135.188 129.58C134.798 130.012 134.132 130.046 133.699 129.655Z" fill="#008186"></path>
  <path fill-rule="evenodd" clip-rule="evenodd" d="M134.347 25.3598C133.942 25.7779 133.274 25.7888 132.856 25.3837C132.438 24.9785 132.427 24.3112 132.831 23.8926C133.237 23.4744 133.905 23.4635 134.323 23.8691C134.741 24.2743 134.752 24.9412 134.347 25.3598Z" fill="#008186"></path>
  <path fill-rule="evenodd" clip-rule="evenodd" d="M125.127 17.1622C124.784 17.6328 124.125 17.7364 123.654 17.3938C123.183 17.0502 123.08 16.3909 123.423 15.9207C123.766 15.4501 124.425 15.3461 124.896 15.6887C125.367 16.0327 125.47 16.692 125.127 17.1622Z" fill="#008186"></path>
  <path fill-rule="evenodd" clip-rule="evenodd" d="M115.626 10.6823C115.351 11.1961 114.712 11.3899 114.199 11.1164C113.685 10.8421 113.491 10.2037 113.765 9.68989C114.039 9.1765 114.678 8.98146 115.191 9.25577C115.705 9.53008 115.9 10.1689 115.626 10.6823Z" fill="#008186"></path>
  <path fill-rule="evenodd" clip-rule="evenodd" d="M105.899 6.10552C105.698 6.65289 105.093 6.93349 104.546 6.73342C103.999 6.53461 103.718 5.92894 103.918 5.38158C104.118 4.83421 104.723 4.55361 105.271 4.75368C105.817 4.95291 106.099 5.55816 105.899 6.10552Z" fill="#008186"></path>
  <path fill-rule="evenodd" clip-rule="evenodd" d="M95.6305 2.92626C95.5084 3.49543 94.9485 3.85908 94.3789 3.73703C93.8097 3.61497 93.4465 3.05418 93.5685 2.48501C93.6902 1.91542 94.2501 1.55302 94.8197 1.67508C95.3889 1.79713 95.7521 2.35708 95.6305 2.92626Z" fill="#008186"></path>
  <path fill-rule="evenodd" clip-rule="evenodd" d="M124.361 44.9698V58.0395H129.023V59.3548H122.807V44.9698H124.361Z" fill="#006791"></path>
  <path fill-rule="evenodd" clip-rule="evenodd" d="M134.362 44.9698L137.529 59.3548H135.976L135.119 55.0913H131.453L130.596 59.3548H129.043L132.211 44.9698H134.362ZM131.673 53.7768H134.901L133.307 46.0453H133.266L131.673 53.7768Z" fill="#006791"></path>
  <path fill-rule="evenodd" clip-rule="evenodd" d="M140.88 44.9698L144.587 55.5686H144.627V44.9698H146.181V59.3548H144.507L140.045 46.8426H140.004V59.3548H138.449V44.9698H140.88Z" fill="#006791"></path>
  <path fill-rule="evenodd" clip-rule="evenodd" d="M154.134 49.313C153.934 47.0414 153.217 46.0855 152.002 46.0855C150.189 46.0855 149.392 47.6781 149.392 52.1614C149.392 56.6444 150.189 58.2395 152.002 58.2395C153.457 58.2395 154.293 57.2425 154.334 54.574H155.888C155.848 57.7609 154.453 59.5548 152.002 59.5548C149.432 59.5548 147.838 57.6019 147.838 52.1614C147.838 46.723 149.432 44.7697 152.002 44.7697C154.134 44.7697 155.45 46.2445 155.688 49.313H154.134Z" fill="#006791"></path>
  <path fill-rule="evenodd" clip-rule="evenodd" d="M164.382 44.9698V46.2844H159.361V51.1859H163.067V52.5012H159.361V58.0395H164.621V59.3548H157.807V44.9698H164.382Z" fill="#006791"></path>
  <path fill-rule="evenodd" clip-rule="evenodd" d="M172.551 44.9698V46.2844H169.603V59.3548H168.047V46.2844H165.1V44.9698H172.551Z" fill="#006791"></path>
  <path fill-rule="evenodd" clip-rule="evenodd" d="M184.351 49.313C184.151 47.0414 183.434 46.0855 182.219 46.0855C180.406 46.0855 179.609 47.6781 179.609 52.1614C179.609 56.6444 180.406 58.2395 182.219 58.2395C183.673 58.2395 184.509 57.2425 184.55 54.574H186.105C186.065 57.7609 184.67 59.5548 182.219 59.5548C179.649 59.5548 178.055 57.6019 178.055 52.1614C178.055 46.723 179.649 44.7697 182.219 44.7697C184.351 44.7697 185.667 46.2445 185.904 49.313H184.351Z" fill="#006791"></path>
  <path fill-rule="evenodd" clip-rule="evenodd" d="M192.087 59.5547C189.656 59.5547 188.023 57.5217 188.023 52.1621C188.023 46.8026 189.656 44.7708 192.087 44.7708C194.518 44.7708 196.152 46.8026 196.152 52.1621C196.152 57.5217 194.518 59.5547 192.087 59.5547ZM192.087 46.0849C190.692 46.0849 189.577 47.2811 189.577 52.1621C189.577 57.0444 190.692 58.2393 192.087 58.2393C193.482 58.2393 194.597 57.0444 194.597 52.1621C194.597 47.2811 193.482 46.0849 192.087 46.0849Z" fill="#006791"></path>
  <path fill-rule="evenodd" clip-rule="evenodd" d="M199.941 44.9698V55.5292C199.941 56.9842 200.36 58.2396 202.053 58.2396C203.747 58.2396 204.165 56.9842 204.165 55.5292V44.9698H205.718V55.5686C205.718 57.8801 204.643 59.5549 202.053 59.5549C199.463 59.5549 198.387 57.8801 198.387 55.5686V44.9698H199.941Z" fill="#006791"></path>
  <path fill-rule="evenodd" clip-rule="evenodd" d="M210.583 44.9698L214.29 55.5686H214.329V44.9698H215.884V59.3548H214.21L209.747 46.8426H209.708V59.3548H208.152V44.9698H210.583Z" fill="#006791"></path>
  <path fill-rule="evenodd" clip-rule="evenodd" d="M224.594 44.9698V46.2844H221.646V59.3548H220.091V46.2844H217.143V44.9698H224.594Z" fill="#006791"></path>
  <path fill-rule="evenodd" clip-rule="evenodd" d="M226.072 44.9698H228.742C231.771 44.9698 233.604 46.6434 233.604 52.1623C233.604 57.6813 231.771 59.3548 228.742 59.3548H226.072V44.9698ZM227.627 58.0395H228.463C230.735 58.0395 232.05 57.0844 232.05 52.1623C232.05 47.2403 230.735 46.2844 228.463 46.2844H227.627V58.0395Z" fill="#006791"></path>
  <path fill-rule="evenodd" clip-rule="evenodd" d="M239.704 59.5547C237.273 59.5547 235.641 57.5217 235.641 52.1621C235.641 46.8026 237.273 44.7708 239.704 44.7708C242.135 44.7708 243.769 46.8026 243.769 52.1621C243.769 57.5217 242.135 59.5547 239.704 59.5547ZM239.704 46.0849C238.309 46.0849 237.193 47.2811 237.193 52.1621C237.193 57.0444 238.309 58.2393 239.704 58.2393C241.099 58.2393 242.214 57.0444 242.214 52.1621C242.214 47.2811 241.099 46.0849 239.704 46.0849Z" fill="#006791"></path>
  <path fill-rule="evenodd" clip-rule="evenodd" d="M246.243 44.9698L247.957 56.2065H247.997L250.148 44.9698H251.422L253.655 56.2065H253.695L255.288 44.9698H256.723L254.412 59.3548H253.097L250.825 48.0577H250.786L248.514 59.3548H247.199L244.809 44.9698H246.243Z" fill="#006791"></path>
  <path fill-rule="evenodd" clip-rule="evenodd" d="M260.413 44.9698L264.12 55.5686H264.159V44.9698H265.714V59.3548H264.04L259.578 46.8426H259.538V59.3548H257.982V44.9698H260.413Z" fill="#006791"></path>
  <path fill-rule="evenodd" clip-rule="evenodd" d="M268.209 53.9353H269.883V52.0629H268.209V53.9353ZM268.209 59.3552H269.883V57.4825H268.209V59.3552Z" fill="#006791"></path>
  <path fill-rule="evenodd" clip-rule="evenodd" d="M124.119 63.745H121.729V61.5937H128.981V63.745H126.59V75.9787H124.119V63.745Z" fill="#C0304A"></path>
  <path fill-rule="evenodd" clip-rule="evenodd" d="M132.529 75.9787H130.059V61.5937H133.526C136.295 61.5937 137.709 62.7694 137.709 65.8367C137.709 68.1482 136.813 69.0852 135.976 69.4627L138.069 75.9787H135.557L133.805 70.021C133.486 70.0608 132.968 70.0814 132.529 70.0814V75.9787ZM132.529 68.0484H133.406C134.742 68.0484 135.24 67.5501 135.24 65.8367C135.24 64.1246 134.742 63.6254 133.406 63.6254H132.529V68.0484Z" fill="#C0304A"></path>
  <path fill-rule="evenodd" clip-rule="evenodd" d="M141.082 75.9787H138.691L141.341 61.5937H144.41L147.06 75.9787H144.668L144.23 72.7905H141.52L141.082 75.9787ZM141.879 70.6384H143.871L142.896 64.4622H142.855L141.879 70.6384Z" fill="#C0304A"></path>
  <path fill-rule="evenodd" clip-rule="evenodd" d="M153.1 66.3946V65.2793C153.1 64.0638 152.542 63.5462 151.905 63.5462C150.909 63.5462 150.59 64.0638 150.59 65.1392V72.4319C150.59 73.5074 150.909 74.0258 151.905 74.0258C152.802 74.0258 153.1 73.5074 153.1 72.5708V70.8376H155.571V72.4911C155.571 74.5237 154.376 76.1783 151.905 76.1783C149.314 76.1783 148.119 74.5237 148.119 72.4911V65.0792C148.119 63.047 149.314 61.394 151.905 61.394C154.376 61.394 155.571 63.1871 155.571 65.3393V66.3946H153.1Z" fill="#C0304A"></path>
  <path fill-rule="evenodd" clip-rule="evenodd" d="M157.586 75.9787V61.5937H160.056V66.9126H160.096L162.686 61.5937H165.157L162.489 66.9524L165.496 75.9787H162.987L160.973 69.2832H160.933L160.056 70.8783V75.9787H157.586Z" fill="#C0304A"></path>
  <path fill-rule="evenodd" clip-rule="evenodd" d="M166.516 75.9791H168.986V61.5937H166.516V75.9791Z" fill="#C0304A"></path>
  <path fill-rule="evenodd" clip-rule="evenodd" d="M171.338 75.9787V61.5937H173.63L176.638 69.8218H176.679V61.5937H178.909V75.9787H176.758L173.61 66.9931H173.57V75.9787H171.338Z" fill="#C0304A"></path>
  <path fill-rule="evenodd" clip-rule="evenodd" d="M184.333 68.6855H188.377V75.9778H187.181L186.724 74.9024C185.986 75.779 185.388 76.1779 184.233 76.1779C182.281 76.1779 180.926 74.7829 180.926 72.4911V65.0788C180.926 63.047 182.121 61.394 184.551 61.394C187.023 61.394 188.258 63.1867 188.258 65.3393V66.2545H185.907C185.907 64.1036 185.469 63.5462 184.492 63.5462C183.894 63.5462 183.396 63.9044 183.396 65.1199V72.5112C183.396 73.4277 183.695 74.0258 184.551 74.0258C185.548 74.0258 185.907 73.4675 185.907 72.0326V70.6376H184.333V68.6855Z" fill="#C0304A"></path>
  <path fill-rule="evenodd" clip-rule="evenodd" d="M194.559 75.9787V61.5937H198.106C201.154 61.5937 202.569 62.7694 202.569 65.8367C202.569 68.9057 201.154 70.0814 198.106 70.0814H197.029V75.9787H194.559ZM197.029 68.0484H197.986C199.6 68.0484 200.097 67.5501 200.097 65.8367C200.097 64.1246 199.6 63.6254 197.986 63.6254H197.029V68.0484Z" fill="#C0304A"></path>
  <path fill-rule="evenodd" clip-rule="evenodd" d="M206.615 75.9787H204.145V61.5937H207.612C210.381 61.5937 211.795 62.7694 211.795 65.8367C211.795 68.1482 210.899 69.0852 210.062 69.4627L212.154 75.9787H209.643L207.891 70.021C207.573 70.0608 207.054 70.0814 206.615 70.0814V75.9787ZM206.615 68.0484H207.492C208.828 68.0484 209.325 67.5501 209.325 65.8367C209.325 64.1246 208.828 63.6254 207.492 63.6254H206.615V68.0484Z" fill="#C0304A"></path>
  <path fill-rule="evenodd" clip-rule="evenodd" d="M213.734 65.0796C213.734 63.0466 214.929 61.3936 217.52 61.3936C220.11 61.3936 221.305 63.0466 221.305 65.0796V72.4915C221.305 74.5232 220.11 76.1775 217.52 76.1775C214.929 76.1775 213.734 74.5232 213.734 72.4915V65.0796ZM216.205 72.4323C216.205 73.5078 216.524 74.0249 217.52 74.0249C218.516 74.0249 218.835 73.5078 218.835 72.4323V65.1396C218.835 64.0642 218.516 63.5457 217.52 63.5457C216.524 63.5457 216.205 64.0642 216.205 65.1396V72.4323Z" fill="#C0304A"></path>
  <path fill-rule="evenodd" clip-rule="evenodd" d="M226.728 68.6855H230.772V75.9778H229.576L229.119 74.9024C228.381 75.779 227.783 76.1779 226.628 76.1779C224.676 76.1779 223.32 74.7829 223.32 72.4911V65.0788C223.32 63.047 224.515 61.394 226.946 61.394C229.418 61.394 230.653 63.1867 230.653 65.3393V66.2545H228.302C228.302 64.1036 227.864 63.5462 226.887 63.5462C226.289 63.5462 225.791 63.9044 225.791 65.1199V72.5112C225.791 73.4277 226.09 74.0258 226.946 74.0258C227.943 74.0258 228.302 73.4675 228.302 72.0326V70.6376H226.728V68.6855Z" fill="#C0304A"></path>
  <path fill-rule="evenodd" clip-rule="evenodd" d="M235.377 75.9787H232.906V61.5937H236.374C239.142 61.5937 240.557 62.7694 240.557 65.8367C240.557 68.1482 239.661 69.0852 238.824 69.4627L240.916 75.9787H238.406L236.653 70.021C236.334 70.0608 235.816 70.0814 235.377 70.0814V75.9787ZM235.377 68.0484H236.254C237.589 68.0484 238.088 67.5501 238.088 65.8367C238.088 64.1246 237.589 63.6254 236.254 63.6254H235.377V68.0484Z" fill="#C0304A"></path>
  <path fill-rule="evenodd" clip-rule="evenodd" d="M242.494 75.9787V61.5937H249.109V63.745H244.965V67.4503H248.153V69.6024H244.965V73.8265H249.388V75.9787H242.494Z" fill="#C0304A"></path>
  <path fill-rule="evenodd" clip-rule="evenodd" d="M255.468 65.1392C255.368 63.9044 254.711 63.5462 254.153 63.5462C253.356 63.5462 252.918 64.0638 252.918 64.9597C252.918 67.4096 257.939 68.5865 257.939 72.4911C257.939 74.8626 256.345 76.1783 254.033 76.1783C251.742 76.1783 250.427 74.3454 250.328 72.1933L252.678 71.8531C252.778 73.3085 253.356 74.0258 254.153 74.0258C255.01 74.0258 255.587 73.5678 255.587 72.7104C255.587 69.8625 250.567 69.105 250.567 64.9802C250.567 62.6888 251.962 61.394 254.393 61.394C256.405 61.394 257.6 62.8482 257.82 64.88L255.468 65.1392Z" fill="#C0304A"></path>
  <path fill-rule="evenodd" clip-rule="evenodd" d="M263.941 65.1392C263.841 63.9044 263.184 63.5462 262.626 63.5462C261.829 63.5462 261.391 64.0638 261.391 64.9597C261.391 67.4096 266.412 68.5865 266.412 72.4911C266.412 74.8626 264.818 76.1783 262.506 76.1783C260.215 76.1783 258.9 74.3454 258.801 72.1933L261.151 71.8531C261.251 73.3085 261.829 74.0258 262.626 74.0258C263.483 74.0258 264.061 73.5678 264.061 72.7104C264.061 69.8625 259.039 69.105 259.039 64.9802C259.039 62.6888 260.435 61.394 262.866 61.394C264.878 61.394 266.073 62.8482 266.292 64.88L263.941 65.1392Z" fill="#C0304A"></path>
  <path fill-rule="evenodd" clip-rule="evenodd" d="M122.686 81.7044C122.686 79.6714 123.881 78.0184 126.471 78.0184C129.062 78.0184 130.256 79.6714 130.256 81.7044V89.1162C130.256 91.148 129.062 92.8022 126.471 92.8022C123.881 92.8022 122.686 91.148 122.686 89.1162V81.7044ZM125.156 89.0571C125.156 90.1325 125.476 90.6501 126.471 90.6501C127.468 90.6501 127.786 90.1325 127.786 89.0571V81.7648C127.786 80.6889 127.468 80.1692 126.471 80.1692C125.476 80.1692 125.156 80.6889 125.156 81.7648V89.0571Z" fill="#008186"></path>
  <path fill-rule="evenodd" clip-rule="evenodd" d="M132.271 92.6028V78.2178H134.563L137.572 86.4463H137.611V78.2178H139.842V92.6028H137.691L134.543 83.6172H134.503V92.6028H132.271Z" fill="#008186"></path>
  <path fill-rule="evenodd" clip-rule="evenodd" d="M145.904 92.6028V78.2178H148.375V84.0744H151.005V78.2178H153.476V92.6028H151.005V86.2269H148.375V92.6028H145.904Z" fill="#008186"></path>
  <path fill-rule="evenodd" clip-rule="evenodd" d="M155.492 92.6028V78.2178H162.107V80.3691H157.963V84.0744H161.151V86.2269H157.963V90.4506H162.386V92.6028H155.492Z" fill="#008186"></path>
  <path fill-rule="evenodd" clip-rule="evenodd" d="M165.399 92.6028H163.008L165.657 78.2178H168.727L171.377 92.6028H168.985L168.547 89.4146H165.836L165.399 92.6028ZM166.196 87.2625H168.188L167.212 81.0863H167.172L166.196 87.2625Z" fill="#008186"></path>
  <path fill-rule="evenodd" clip-rule="evenodd" d="M172.314 92.6028V78.2178H174.785V90.4506H178.67V92.6028H172.314Z" fill="#008186"></path>
  <path fill-rule="evenodd" clip-rule="evenodd" d="M181.245 80.3691H178.854V78.2178H186.106V80.3691H183.715V92.6028H181.245V80.3691Z" fill="#008186"></path>
  <path fill-rule="evenodd" clip-rule="evenodd" d="M187.184 92.6028V78.2178H189.654V84.0744H192.284V78.2178H194.755V92.6028H192.284V86.2269H189.654V92.6028H187.184Z" fill="#008186"></path>
  <path fill-rule="evenodd" clip-rule="evenodd" d="M202.253 92.6028H199.861L202.51 78.2178H205.58L208.231 92.6028H205.839L205.401 89.4146H202.69L202.253 92.6028ZM203.049 87.2625H205.041L204.066 81.0863H204.025L203.049 87.2625Z" fill="#008186"></path>
  <path fill-rule="evenodd" clip-rule="evenodd" d="M209.289 92.6028V78.2178H211.581L214.589 86.4463H214.629V78.2178H216.86V92.6028H214.709L211.561 83.6172H211.52V92.6028H209.289Z" fill="#008186"></path>
  <path fill-rule="evenodd" clip-rule="evenodd" d="M218.875 78.2178H222.54C225.091 78.2178 226.446 79.612 226.446 82.561V88.2595C226.446 91.2077 225.091 92.6028 222.54 92.6028H218.875V78.2178ZM221.345 90.5702H222.203C223.517 90.5702 223.975 90.0719 223.975 88.5573V82.262C223.975 80.7487 223.517 80.2495 222.203 80.2495H221.345V90.5702Z" fill="#008186"></path>
  <path fill-rule="evenodd" clip-rule="evenodd" d="M127.666 99.6425V98.5273C127.666 97.3117 127.108 96.7933 126.471 96.7933C125.475 96.7933 125.156 97.3117 125.156 98.3872V105.68C125.156 106.756 125.475 107.274 126.471 107.274C127.369 107.274 127.666 106.756 127.666 105.819V104.086H130.137V105.739C130.137 107.772 128.942 109.426 126.471 109.426C123.881 109.426 122.686 107.772 122.686 105.739V98.3272C122.686 96.2954 123.881 94.642 126.471 94.642C128.942 94.642 130.137 96.4351 130.137 98.5872V99.6425H127.666Z" fill="#995C8C"></path>
  <path fill-rule="evenodd" clip-rule="evenodd" d="M132.15 109.226V94.841H134.621V107.074H138.506V109.226H132.15Z" fill="#995C8C"></path>
  <path fill-rule="evenodd" clip-rule="evenodd" d="M139.984 109.226H142.455V94.841H139.984V109.226Z" fill="#995C8C"></path>
  <path fill-rule="evenodd" clip-rule="evenodd" d="M154.713 94.841V109.226H152.561V97.9893H152.521L150.29 109.226H149.093L146.862 97.9893H146.822V109.226H144.67V94.841H147.918L149.671 103.248H149.712L151.464 94.841H154.713Z" fill="#995C8C"></path>
  <path fill-rule="evenodd" clip-rule="evenodd" d="M158.043 109.226H155.652L158.302 94.841H161.371L164.021 109.226H161.629L161.191 106.038H158.481L158.043 109.226ZM158.84 103.886H160.832L159.857 97.7095H159.816L158.84 103.886Z" fill="#995C8C"></path>
  <path fill-rule="evenodd" clip-rule="evenodd" d="M166.516 96.9923H164.125V94.841H171.377V96.9923H168.987V109.226H166.516V96.9923Z" fill="#995C8C"></path>
  <path fill-rule="evenodd" clip-rule="evenodd" d="M172.455 109.226V94.841H179.07V96.9923H174.926V100.698H178.114V102.85H174.926V107.074H179.349V109.226H172.455Z" fill="#995C8C"></path>
  <path fill-rule="evenodd" clip-rule="evenodd" d="M189.952 99.6425V98.5273C189.952 97.3117 189.394 96.7933 188.757 96.7933C187.761 96.7933 187.442 97.3117 187.442 98.3872V105.68C187.442 106.756 187.761 107.274 188.757 107.274C189.654 107.274 189.952 106.756 189.952 105.819V104.086H192.422V105.739C192.422 107.772 191.227 109.426 188.757 109.426C186.166 109.426 184.971 107.772 184.971 105.739V98.3272C184.971 96.2954 186.166 94.642 188.757 94.642C191.227 94.642 192.422 96.4351 192.422 98.5872V99.6425H189.952Z" fill="#995C8C"></path>
  <path fill-rule="evenodd" clip-rule="evenodd" d="M194.559 109.226V94.841H197.029V100.698H199.659V94.841H202.129V109.226H199.659V102.85H197.029V109.226H194.559Z" fill="#995C8C"></path>
  <path fill-rule="evenodd" clip-rule="evenodd" d="M205.581 109.226H203.189L205.839 94.841H208.908L211.558 109.226H209.167L208.729 106.038H206.019L205.581 109.226ZM206.378 103.886H208.371L207.394 97.7095H207.353L206.378 103.886Z" fill="#995C8C"></path>
  <path fill-rule="evenodd" clip-rule="evenodd" d="M212.617 109.226V94.841H214.909L217.918 103.069H217.958V94.841H220.188V109.226H218.037L214.889 100.24H214.849V109.226H212.617Z" fill="#995C8C"></path>
  <path fill-rule="evenodd" clip-rule="evenodd" d="M225.613 101.933H229.657V109.226H228.461L228.003 108.15C227.266 109.027 226.667 109.426 225.512 109.426C223.56 109.426 222.205 108.031 222.205 105.739V98.3268C222.205 96.295 223.4 94.642 225.831 94.642C228.302 94.642 229.537 96.4351 229.537 98.5872V99.5025H227.186C227.186 97.3516 226.748 96.7933 225.772 96.7933C225.173 96.7933 224.676 97.1524 224.676 98.3679V105.759C224.676 106.676 224.975 107.274 225.831 107.274C226.828 107.274 227.186 106.715 227.186 105.281V103.886H225.613V101.933Z" fill="#995C8C"></path>
  <path fill-rule="evenodd" clip-rule="evenodd" d="M231.791 109.226V94.841H238.406V96.9923H234.262V100.698H237.45V102.85H234.262V107.074H238.684V109.226H231.791Z" fill="#995C8C"></path>
  <path fill-rule="evenodd" clip-rule="evenodd" d="M105.596 77.8491C105.57 82.5657 104.322 86.9903 102.156 90.8298L109.656 95.1601C112.558 90.0472 114.225 84.1419 114.251 77.8491H105.596Z" fill="#006791"></path>
  <path fill-rule="evenodd" clip-rule="evenodd" d="M105.589 77.296H114.247C114.176 71.0686 112.501 65.2267 109.612 60.1666L102.111 64.4969C104.264 68.2836 105.519 72.6449 105.589 77.296Z" fill="#006791"></path>
  <path fill-rule="evenodd" clip-rule="evenodd" d="M92.377 100.785L96.7068 108.284C101.975 105.198 106.375 100.791 109.451 95.5156L101.951 91.1858C99.6353 95.1478 96.3327 98.4597 92.377 100.785Z" fill="#006791"></path>
  <path fill-rule="evenodd" clip-rule="evenodd" d="M91.8285 54.3044L96.1575 46.8061C91.1054 43.9674 85.287 42.332 79.0898 42.288V50.9443C83.7108 50.9879 88.0498 52.2013 91.8285 54.3044Z" fill="#006791"></path>
  <path fill-rule="evenodd" clip-rule="evenodd" d="M101.763 63.8913L109.258 59.5636C106.191 54.4301 101.862 50.1384 96.6986 47.1164L92.3691 54.6151C96.2196 56.8771 99.4564 60.0703 101.763 63.8913Z" fill="#006791"></path>
  <path fill-rule="evenodd" clip-rule="evenodd" d="M96.434 108.444L92.1033 100.943C88.2529 103.146 83.8048 104.42 79.0605 104.459V113.112C85.381 113.073 91.3106 111.383 96.434 108.444Z" fill="#006791"></path>
  <path fill-rule="evenodd" clip-rule="evenodd" d="M52.0709 77.7024C52.0709 63.0691 63.816 51.1865 78.3927 50.9491V42.2906C59.0365 42.5281 43.418 58.29 43.418 77.7024C43.418 97.2217 59.2089 113.05 78.7127 113.117V104.464C63.988 104.397 52.0709 92.4426 52.0709 77.7024Z" fill="#006791"></path>
</svg>
